<svg width="157" height="157" viewBox="91 34.65 156.7 156.7" fill="none" xmlns="http://www.w3.org/2000/svg">
<path d="M135.456 137.415C135.456 138.423 133.2 138.927 128.688 138.927C124.176 138.927 121.728 138.567 121.344 137.847L109.32 115.383V137.775C109.32 138.639 107.088 139.071 102.624 139.071C98.208 139.071 96 138.639 96 137.775V89.6073C96 88.8873 97.896 88.5273 101.688 88.5273C103.176 88.5273 104.904 88.6713 106.872 88.9593C108.888 89.1993 110.112 89.6793 110.544 90.3993L122.064 112.575V89.9673C122.064 89.0553 124.296 88.5993 128.76 88.5993C133.224 88.5993 135.456 89.0553 135.456 89.9673V137.415Z" fill="#344056"/>
<path d="M168.104 137.055C165.079 138.831 161.192 139.719 156.44 139.719C151.688 139.719 147.68 138.111 144.416 134.895C141.152 131.631 139.52 127.143 139.52 121.431C139.52 115.671 141.08 111.039 144.2 107.535C147.368 104.031 151.352 102.279 156.152 102.279C160.951 102.279 164.647 103.503 167.24 105.951C169.88 108.399 171.2 111.375 171.2 114.879C171.2 122.655 166.736 126.543 157.808 126.543H152.84C152.84 127.983 153.223 128.991 153.992 129.567C154.808 130.095 155.984 130.359 157.52 130.359C160.88 130.359 164.072 129.591 167.096 128.055C167.144 128.007 167.359 128.343 167.743 129.063C168.896 131.127 169.472 132.879 169.472 134.319C169.472 135.711 169.016 136.623 168.104 137.055ZM159.104 116.247C159.104 114.231 158.119 113.223 156.152 113.223C155.24 113.223 154.448 113.511 153.776 114.087C153.152 114.615 152.84 115.407 152.84 116.463V118.695H156.728C158.312 118.695 159.104 117.879 159.104 116.247Z" fill="#344056"/>
<path d="M191.023 138.567C191.023 139.143 189.007 139.431 184.975 139.431C180.175 139.239 177.775 138.927 177.775 138.495V113.007H174.103C173.143 113.007 172.663 111.351 172.663 108.039C172.663 107.175 172.735 106.119 172.879 104.871C173.071 103.623 173.431 102.999 173.959 102.999H177.775V96.6633C177.775 95.7033 179.791 95.2233 183.823 95.2233C187.903 95.2233 189.943 95.6073 189.943 96.3753V100.983L190.015 102.999H196.135C196.951 102.999 197.359 104.679 197.359 108.039C197.359 111.399 196.951 113.079 196.135 113.079H191.023V138.567Z" fill="#344056"/>
<path d="M212.707 138.567C212.707 138.951 210.499 139.143 206.083 139.143C201.715 139.143 199.531 138.975 199.531 138.639V103.287C199.531 102.951 201.715 102.783 206.083 102.783C210.499 102.783 212.707 102.927 212.707 103.215V138.567Z" fill="#344056"/>
<path d="M233.546 138.927C233.546 139.263 231.362 139.431 226.994 139.431C222.626 139.335 220.442 139.143 220.442 138.855V114.951H218.498C217.73 114.951 217.106 114.495 216.626 113.583C216.194 112.623 215.978 111.447 215.978 110.055C215.978 104.871 217.514 102.279 220.586 102.279C222.746 102.279 224.546 102.951 225.986 104.295C227.426 105.591 228.146 107.079 228.146 108.759C229.154 106.791 230.498 105.231 232.178 104.079C233.906 102.879 235.658 102.279 237.434 102.279C240.218 102.279 241.898 102.999 242.474 104.439C242.618 104.823 242.69 105.399 242.69 106.167C242.69 106.887 242.45 108.207 241.97 110.127C241.538 112.047 241.082 113.439 240.602 114.303C240.122 115.167 239.834 115.599 239.738 115.599C239.642 115.599 239.186 115.431 238.37 115.095C237.602 114.711 236.906 114.519 236.282 114.519C234.458 114.519 233.546 115.959 233.546 118.839V138.927Z" fill="#344056"/>
<path d="M199.4 92.9546V99.1228L208.757 99.1228C209.945 99.1228 211.434 98.7503 212.226 98.2615C213.017 97.7727 214.064 96.4227 214.274 94.933C214.483 93.4433 214.46 91.5636 213.995 90.0916C213.32 87.9571 211.527 86.6932 209.898 86.2743C206.802 85.6924 204.568 85.9717 202.031 87.7407C200.048 89.1231 199.439 91.7752 199.4 92.9546Z" fill="#76ABD8"/>
</svg>
