<svg width="162" height="43" viewBox="0 0 162 43" fill="none" xmlns="http://www.w3.org/2000/svg">
<g clip-path="url(#clip0_1_2)">
<path d="M52.332 10.7279C52.684 10.7279 52.97 10.8452 53.19 11.0799C53.41 11.3146 53.52 11.6079 53.52 11.9599V24.7859C53.52 25.1672 53.388 25.4899 53.124 25.7539C52.8747 26.0032 52.5593 26.1279 52.178 26.1279C51.9873 26.1279 51.7893 26.0986 51.584 26.0399C51.3933 25.9666 51.2467 25.8712 51.144 25.7539L42.498 14.7759L43.07 14.4239V24.8959C43.07 25.2479 42.9527 25.5412 42.718 25.7759C42.498 26.0106 42.2047 26.1279 41.838 26.1279C41.486 26.1279 41.2 26.0106 40.98 25.7759C40.76 25.5412 40.65 25.2479 40.65 24.8959V12.0699C40.65 11.6886 40.7747 11.3732 41.024 11.1239C41.288 10.8599 41.6107 10.7279 41.992 10.7279C42.1973 10.7279 42.41 10.7719 42.63 10.8599C42.85 10.9332 43.0113 11.0506 43.114 11.2119L51.496 21.9039L51.122 22.1679V11.9599C51.122 11.6079 51.232 11.3146 51.452 11.0799C51.672 10.8452 51.9653 10.7279 52.332 10.7279ZM68.4657 20.2539C68.4657 21.4566 68.1944 22.5199 67.6517 23.4439C67.1237 24.3532 66.4051 25.0646 65.4957 25.5779C64.6011 26.0912 63.5964 26.3479 62.4817 26.3479C61.3671 26.3479 60.3551 26.0912 59.4457 25.5779C58.5511 25.0646 57.8324 24.3532 57.2897 23.4439C56.7617 22.5199 56.4977 21.4566 56.4977 20.2539C56.4977 19.0512 56.7617 17.9952 57.2897 17.0859C57.8324 16.1619 58.5511 15.4432 59.4457 14.9299C60.3551 14.4019 61.3671 14.1379 62.4817 14.1379C63.5964 14.1379 64.6011 14.4019 65.4957 14.9299C66.4051 15.4432 67.1237 16.1619 67.6517 17.0859C68.1944 17.9952 68.4657 19.0512 68.4657 20.2539ZM65.8257 20.2539C65.8257 19.5059 65.6717 18.8606 65.3637 18.3179C65.0704 17.7606 64.6671 17.3279 64.1537 17.0199C63.6551 16.7119 63.0977 16.5579 62.4817 16.5579C61.8657 16.5579 61.3011 16.7119 60.7877 17.0199C60.2891 17.3279 59.8857 17.7606 59.5777 18.3179C59.2844 18.8606 59.1377 19.5059 59.1377 20.2539C59.1377 20.9872 59.2844 21.6326 59.5777 22.1899C59.8857 22.7326 60.2891 23.1579 60.7877 23.4659C61.3011 23.7739 61.8657 23.9279 62.4817 23.9279C63.0977 23.9279 63.6551 23.7739 64.1537 23.4659C64.6671 23.1579 65.0704 22.7326 65.3637 22.1899C65.6717 21.6326 65.8257 20.9872 65.8257 20.2539ZM84.9283 10.7279C86.3363 10.7279 87.3849 11.0579 88.0743 11.7179C88.7636 12.3779 89.1083 13.3532 89.1083 14.6439C89.1083 15.3332 88.9396 15.9419 88.6023 16.4699C88.2649 16.9832 87.7663 17.3866 87.1063 17.6799C86.4463 17.9586 85.6323 18.0979 84.6643 18.0979L84.7523 17.1079C85.2069 17.1079 85.7276 17.1739 86.3143 17.3059C86.9009 17.4232 87.4656 17.6432 88.0083 17.9659C88.5656 18.2739 89.0203 18.7139 89.3723 19.2859C89.7389 19.8432 89.9223 20.5619 89.9223 21.4419C89.9223 22.4099 89.7609 23.2019 89.4383 23.8179C89.1303 24.4339 88.7196 24.9106 88.2063 25.2479C87.6929 25.5852 87.1429 25.8199 86.5563 25.9519C85.9696 26.0692 85.4049 26.1279 84.8623 26.1279H79.3843C79.0029 26.1279 78.6803 26.0032 78.4163 25.7539C78.1669 25.4899 78.0423 25.1672 78.0423 24.7859V12.0699C78.0423 11.6886 78.1669 11.3732 78.4163 11.1239C78.6803 10.8599 79.0029 10.7279 79.3843 10.7279H84.9283ZM84.5323 13.3239H80.6163L80.9023 12.9719V16.9539L80.6383 16.7559H84.5983C85.0236 16.7559 85.4049 16.6166 85.7423 16.3379C86.0796 16.0592 86.2483 15.6559 86.2483 15.1279C86.2483 14.4972 86.0869 14.0426 85.7643 13.7639C85.4563 13.4706 85.0456 13.3239 84.5323 13.3239ZM84.7083 19.3519H80.7043L80.9023 19.1759V23.8179L80.6823 23.5979H84.8623C85.5369 23.5979 86.0723 23.4219 86.4683 23.0699C86.8643 22.7032 87.0623 22.1606 87.0623 21.4419C87.0623 20.7819 86.9303 20.3052 86.6663 20.0119C86.4023 19.7186 86.0869 19.5352 85.7203 19.4619C85.3536 19.3886 85.0163 19.3519 84.7083 19.3519ZM101.412 14.3579C101.794 14.3579 102.109 14.4899 102.358 14.7539C102.608 15.0032 102.732 15.3186 102.732 15.6999V21.2879C102.732 22.8426 102.3 24.0746 101.434 24.9839C100.569 25.8932 99.3223 26.3479 97.6943 26.3479C96.0663 26.3479 94.8196 25.8932 93.9543 24.9839C93.1036 24.0746 92.6783 22.8426 92.6783 21.2879V15.6999C92.6783 15.3186 92.8029 15.0032 93.0523 14.7539C93.3016 14.4899 93.6169 14.3579 93.9983 14.3579C94.3796 14.3579 94.6949 14.4899 94.9443 14.7539C95.1936 15.0032 95.3183 15.3186 95.3183 15.6999V21.2879C95.3183 22.1826 95.5163 22.8499 95.9123 23.2899C96.3083 23.7152 96.9023 23.9279 97.6943 23.9279C98.5009 23.9279 99.1023 23.7152 99.4983 23.2899C99.8943 22.8499 100.092 22.1826 100.092 21.2879V15.6999C100.092 15.3186 100.217 15.0032 100.466 14.7539C100.716 14.4899 101.031 14.3579 101.412 14.3579ZM108.89 24.7859C108.89 25.1672 108.758 25.4899 108.494 25.7539C108.245 26.0032 107.93 26.1279 107.548 26.1279C107.182 26.1279 106.874 26.0032 106.624 25.7539C106.375 25.4899 106.25 25.1672 106.25 24.7859V11.1899C106.25 10.8086 106.375 10.4932 106.624 10.2439C106.888 9.9799 107.211 9.8479 107.592 9.8479C107.974 9.8479 108.282 9.9799 108.516 10.2439C108.766 10.4932 108.89 10.8086 108.89 11.1899V24.7859ZM115.26 24.7859C115.26 25.1672 115.128 25.4899 114.864 25.7539C114.615 26.0032 114.299 26.1279 113.918 26.1279C113.551 26.1279 113.243 26.0032 112.994 25.7539C112.745 25.4899 112.62 25.1672 112.62 24.7859V11.1899C112.62 10.8086 112.745 10.4932 112.994 10.2439C113.258 9.9799 113.581 9.8479 113.962 9.8479C114.343 9.8479 114.651 9.9799 114.886 10.2439C115.135 10.4932 115.26 10.8086 115.26 11.1899V24.7859ZM118.088 24.3019C117.941 24.0966 117.875 23.8326 117.89 23.5099C117.904 23.1872 118.095 22.9086 118.462 22.6739C118.696 22.5272 118.946 22.4686 119.21 22.4979C119.474 22.5126 119.73 22.6446 119.98 22.8939C120.405 23.3192 120.852 23.6492 121.322 23.8839C121.791 24.1186 122.378 24.2359 123.082 24.2359C123.302 24.2212 123.544 24.1919 123.808 24.1479C124.072 24.0892 124.299 23.9719 124.49 23.7959C124.695 23.6052 124.798 23.3192 124.798 22.9379C124.798 22.6152 124.688 22.3586 124.468 22.1679C124.248 21.9772 123.954 21.8159 123.588 21.6839C123.236 21.5519 122.84 21.4272 122.4 21.3099C121.945 21.1779 121.476 21.0312 120.992 20.8699C120.522 20.7086 120.09 20.5032 119.694 20.2539C119.298 19.9899 118.975 19.6452 118.726 19.2199C118.476 18.7946 118.352 18.2592 118.352 17.6139C118.352 16.8806 118.557 16.2572 118.968 15.7439C119.378 15.2306 119.906 14.8346 120.552 14.5559C121.212 14.2772 121.901 14.1379 122.62 14.1379C123.074 14.1379 123.551 14.1966 124.05 14.3139C124.548 14.4166 125.025 14.5926 125.48 14.8419C125.934 15.0766 126.316 15.3919 126.624 15.7879C126.785 16.0079 126.88 16.2719 126.91 16.5799C126.939 16.8879 126.8 17.1666 126.492 17.4159C126.272 17.5919 126.015 17.6726 125.722 17.6579C125.428 17.6286 125.186 17.5259 124.996 17.3499C124.746 17.0272 124.409 16.7706 123.984 16.5799C123.573 16.3892 123.096 16.2939 122.554 16.2939C122.334 16.2939 122.092 16.3232 121.828 16.3819C121.578 16.4259 121.358 16.5359 121.168 16.7119C120.977 16.8732 120.882 17.1372 120.882 17.5039C120.882 17.8412 120.992 18.1126 121.212 18.3179C121.432 18.5086 121.725 18.6699 122.092 18.8019C122.473 18.9192 122.876 19.0366 123.302 19.1539C123.742 19.2712 124.189 19.4106 124.644 19.5719C125.098 19.7332 125.516 19.9459 125.898 20.2099C126.279 20.4739 126.587 20.8186 126.822 21.2439C127.056 21.6546 127.174 22.1826 127.174 22.8279C127.174 23.5759 126.954 24.2139 126.514 24.7419C126.074 25.2699 125.524 25.6732 124.864 25.9519C124.204 26.2159 123.529 26.3479 122.84 26.3479C121.974 26.3479 121.109 26.2012 120.244 25.9079C119.378 25.5999 118.66 25.0646 118.088 24.3019ZM136.005 14.1379C137.061 14.1379 137.86 14.3652 138.403 14.8199C138.96 15.2746 139.342 15.8832 139.547 16.6459C139.752 17.3939 139.855 18.2299 139.855 19.1539V24.7859C139.855 25.1672 139.73 25.4899 139.481 25.7539C139.232 26.0032 138.916 26.1279 138.535 26.1279C138.154 26.1279 137.838 26.0032 137.589 25.7539C137.34 25.4899 137.215 25.1672 137.215 24.7859V19.1539C137.215 18.6699 137.156 18.2372 137.039 17.8559C136.922 17.4599 136.709 17.1446 136.401 16.9099C136.093 16.6752 135.653 16.5579 135.081 16.5579C134.524 16.5579 134.047 16.6752 133.651 16.9099C133.255 17.1446 132.954 17.4599 132.749 17.8559C132.558 18.2372 132.463 18.6699 132.463 19.1539V24.7859C132.463 25.1672 132.338 25.4899 132.089 25.7539C131.84 26.0032 131.524 26.1279 131.143 26.1279C130.762 26.1279 130.446 26.0032 130.197 25.7539C129.948 25.4899 129.823 25.1672 129.823 24.7859V11.1899C129.823 10.8086 129.948 10.4932 130.197 10.2439C130.446 9.9799 130.762 9.8479 131.143 9.8479C131.524 9.8479 131.84 9.9799 132.089 10.2439C132.338 10.4932 132.463 10.8086 132.463 11.1899V16.6459L132.133 16.5799C132.265 16.3306 132.448 16.0666 132.683 15.7879C132.918 15.4946 133.204 15.2232 133.541 14.9739C133.878 14.7246 134.252 14.5266 134.663 14.3799C135.074 14.2186 135.521 14.1379 136.005 14.1379ZM145.64 24.7859C145.64 25.1672 145.515 25.4899 145.266 25.7539C145.016 26.0032 144.701 26.1279 144.32 26.1279C143.938 26.1279 143.623 26.0032 143.374 25.7539C143.124 25.4899 143 25.1672 143 24.7859V15.6999C143 15.3186 143.124 15.0032 143.374 14.7539C143.623 14.4899 143.938 14.3579 144.32 14.3579C144.701 14.3579 145.016 14.4899 145.266 14.7539C145.515 15.0032 145.64 15.3186 145.64 15.6999V24.7859ZM144.298 12.9279C143.799 12.9279 143.447 12.8472 143.242 12.6859C143.036 12.5246 142.934 12.2386 142.934 11.8279V11.4099C142.934 10.9846 143.044 10.6986 143.264 10.5519C143.498 10.3906 143.85 10.3099 144.32 10.3099C144.833 10.3099 145.192 10.3906 145.398 10.5519C145.603 10.7132 145.706 10.9992 145.706 11.4099V11.8279C145.706 12.2532 145.596 12.5466 145.376 12.7079C145.156 12.8546 144.796 12.9279 144.298 12.9279ZM148.925 14.5779H154.139C154.491 14.5779 154.784 14.6952 155.019 14.9299C155.254 15.1646 155.371 15.4579 155.371 15.8099C155.371 16.1472 155.254 16.4332 155.019 16.6679C154.784 16.8879 154.491 16.9979 154.139 16.9979H148.925C148.573 16.9979 148.28 16.8806 148.045 16.6459C147.81 16.4112 147.693 16.1179 147.693 15.7659C147.693 15.4286 147.81 15.1499 148.045 14.9299C148.28 14.6952 148.573 14.5779 148.925 14.5779ZM151.279 11.8279C151.66 11.8279 151.968 11.9599 152.203 12.2239C152.452 12.4732 152.577 12.7886 152.577 13.1699V22.9599C152.577 23.1652 152.614 23.3339 152.687 23.4659C152.775 23.5979 152.885 23.6932 153.017 23.7519C153.164 23.8106 153.318 23.8399 153.479 23.8399C153.655 23.8399 153.816 23.8106 153.963 23.7519C154.11 23.6786 154.278 23.6419 154.469 23.6419C154.674 23.6419 154.858 23.7372 155.019 23.9279C155.195 24.1186 155.283 24.3826 155.283 24.7199C155.283 25.1306 155.056 25.4679 154.601 25.7319C154.161 25.9959 153.684 26.1279 153.171 26.1279C152.863 26.1279 152.518 26.1059 152.137 26.0619C151.77 26.0032 151.418 25.8786 151.081 25.6879C150.758 25.4826 150.487 25.1746 150.267 24.7639C150.047 24.3532 149.937 23.7886 149.937 23.0699V13.1699C149.937 12.7886 150.062 12.4732 150.311 12.2239C150.575 11.9599 150.898 11.8279 151.279 11.8279ZM159.401 26.1059C158.976 26.1059 158.646 25.9959 158.411 25.7759C158.191 25.5412 158.081 25.2112 158.081 24.7859V24.4119C158.081 23.9866 158.191 23.6639 158.411 23.4439C158.646 23.2092 158.976 23.0919 159.401 23.0919H159.687C160.112 23.0919 160.435 23.2092 160.655 23.4439C160.89 23.6639 161.007 23.9866 161.007 24.4119V24.7859C161.007 25.2112 160.89 25.5412 160.655 25.7759C160.435 25.9959 160.112 26.1059 159.687 26.1059H159.401Z" fill="#131313"/>
<path d="M108.686 36.1279H107.805C107.753 35.8746 107.662 35.652 107.532 35.4603C107.404 35.2685 107.248 35.1075 107.063 34.9773C106.881 34.8448 106.679 34.7453 106.456 34.679C106.233 34.6127 106.001 34.5796 105.76 34.5796C105.32 34.5796 104.921 34.6909 104.563 34.9134C104.208 35.1359 103.925 35.4638 103.714 35.8971C103.506 36.3303 103.402 36.8618 103.402 37.4915C103.402 38.1213 103.506 38.6528 103.714 39.086C103.925 39.5192 104.208 39.8471 104.563 40.0697C104.921 40.2922 105.32 40.4035 105.76 40.4035C106.001 40.4035 106.233 40.3703 106.456 40.304C106.679 40.2377 106.881 40.1395 107.063 40.0093C107.248 39.8767 107.404 39.7145 107.532 39.5228C107.662 39.3287 107.753 39.1061 107.805 38.8552H108.686C108.62 39.2269 108.499 39.5595 108.324 39.853C108.149 40.1466 107.931 40.3964 107.67 40.6023C107.41 40.8059 107.118 40.961 106.793 41.0675C106.471 41.1741 106.127 41.2273 105.76 41.2273C105.14 41.2273 104.588 41.0758 104.105 40.7728C103.622 40.4698 103.242 40.0389 102.965 39.4802C102.688 38.9215 102.55 38.2586 102.55 37.4915C102.55 36.7245 102.688 36.0616 102.965 35.5029C103.242 34.9442 103.622 34.5133 104.105 34.2103C104.588 33.9073 105.14 33.7557 105.76 33.7557C106.127 33.7557 106.471 33.809 106.793 33.9155C107.118 34.0221 107.41 34.1783 107.67 34.3843C107.931 34.5879 108.149 34.8365 108.324 35.13C108.499 35.4212 108.62 35.7538 108.686 36.1279ZM119.246 37.4915C119.246 38.2586 119.107 38.9215 118.83 39.4802C118.553 40.0389 118.173 40.4698 117.69 40.7728C117.207 41.0758 116.656 41.2273 116.035 41.2273C115.415 41.2273 114.863 41.0758 114.381 40.7728C113.898 40.4698 113.518 40.0389 113.241 39.4802C112.964 38.9215 112.825 38.2586 112.825 37.4915C112.825 36.7245 112.964 36.0616 113.241 35.5029C113.518 34.9442 113.898 34.5133 114.381 34.2103C114.863 33.9073 115.415 33.7557 116.035 33.7557C116.656 33.7557 117.207 33.9073 117.69 34.2103C118.173 34.5133 118.553 34.9442 118.83 35.5029C119.107 36.0616 119.246 36.7245 119.246 37.4915ZM118.393 37.4915C118.393 36.8618 118.288 36.3303 118.077 35.8971C117.869 35.4638 117.586 35.1359 117.229 34.9134C116.873 34.6909 116.476 34.5796 116.035 34.5796C115.595 34.5796 115.196 34.6909 114.839 34.9134C114.483 35.1359 114.201 35.4638 113.99 35.8971C113.782 36.3303 113.677 36.8618 113.677 37.4915C113.677 38.1213 113.782 38.6528 113.99 39.086C114.201 39.5192 114.483 39.8471 114.839 40.0697C115.196 40.2922 115.595 40.4035 116.035 40.4035C116.476 40.4035 116.873 40.2922 117.229 40.0697C117.586 39.8471 117.869 39.5192 118.077 39.086C118.288 38.6528 118.393 38.1213 118.393 37.4915ZM129.493 33.8552V41.1279H128.641L124.678 35.4177H124.607V41.1279H123.726V33.8552H124.579L128.556 39.5796H128.627V33.8552H129.493ZM138.233 35.6734C138.19 35.3135 138.018 35.0341 137.714 34.8353C137.411 34.6364 137.04 34.537 136.599 34.537C136.277 34.537 135.996 34.5891 135.754 34.6932C135.515 34.7974 135.328 34.9406 135.193 35.1229C135.061 35.3052 134.994 35.5124 134.994 35.7444C134.994 35.9385 135.04 36.1054 135.133 36.2451C135.228 36.3824 135.348 36.4972 135.495 36.5895C135.642 36.6795 135.796 36.7541 135.957 36.8133C136.118 36.8701 136.266 36.9163 136.401 36.9518L137.139 37.1506C137.329 37.2003 137.539 37.269 137.771 37.3566C138.006 37.4442 138.229 37.5637 138.442 37.7153C138.658 37.8644 138.835 38.0562 138.975 38.2905C139.115 38.5249 139.185 38.8126 139.185 39.1535C139.185 39.5465 139.082 39.9016 138.876 40.2188C138.672 40.536 138.374 40.7882 137.981 40.9752C137.59 41.1622 137.116 41.2557 136.557 41.2557C136.036 41.2557 135.585 41.1717 135.204 41.0036C134.825 40.8355 134.527 40.6011 134.309 40.3005C134.094 39.9998 133.972 39.6506 133.943 39.2529H134.852C134.876 39.5275 134.968 39.7548 135.129 39.9347C135.293 40.1123 135.499 40.2448 135.747 40.3324C135.998 40.4177 136.268 40.4603 136.557 40.4603C136.893 40.4603 137.195 40.4058 137.462 40.2969C137.73 40.1857 137.942 40.0318 138.098 39.8353C138.254 39.6364 138.332 39.4044 138.332 39.1393C138.332 38.8978 138.265 38.7013 138.13 38.5498C137.995 38.3983 137.817 38.2752 137.597 38.1805C137.377 38.0858 137.139 38.0029 136.884 37.9319L135.989 37.6762C135.42 37.5128 134.971 37.2797 134.639 36.9766C134.308 36.6736 134.142 36.277 134.142 35.787C134.142 35.3798 134.252 35.0247 134.472 34.7216C134.695 34.4163 134.993 34.1795 135.367 34.0114C135.744 33.841 136.164 33.7557 136.628 33.7557C137.097 33.7557 137.513 33.8398 137.878 34.0079C138.242 34.1736 138.531 34.4009 138.744 34.6897C138.96 34.9785 139.073 35.3064 139.085 35.6734H138.233ZM143.633 41.1279V33.8552H148.022V34.6364H144.513V37.0938H147.795V37.8751H144.513V40.3466H148.079V41.1279H143.633ZM153.49 33.8552V41.1279H152.609V33.8552H153.49ZM158.256 41.1279V33.8552H159.136V40.3466H162.517V41.1279H158.256Z" fill="#131313"/>
<path d="M19 34C19 33.5 19.5 33.5 19.5 33.5C19.5 33.5 21.1973 33.1792 22 32.5C23 31.6539 23.5 29.5 23.5 29.5C23.5 29.5 23.5 29 24 29C24.5 29 24.5 29.5 24.5 29.5C24.5 29.5 24.6268 31.6268 25.5 32.5C26.3733 33.3732 28.5 33.5 28.5 33.5C28.5 33.5 29 33.5 29 34C29 34.5 28.5 34.5 28.5 34.5C28.5 34.5 26.3733 34.6268 25.5 35.5C24.6268 36.3732 24.5 38.5 24.5 38.5C24.5 38.5 24.5 39 24 39C23.5 39 23.5 38.5 23.5 38.5C23.5 38.5 23.3733 36.3732 22.5 35.5C21.6268 34.6268 19.5 34.5 19.5 34.5C19.5 34.5 19 34.5 19 34Z" fill="#EDBB59"/>
<path d="M30.4327 29.2235C30.2287 29.4345 29.9393 29.1013 30.1029 28.8576C30.9249 27.6325 31.4526 26.1854 31.5764 24.6099C31.9604 19.7198 28.3076 15.4444 23.4175 15.0603C21.1528 14.8825 19.0199 15.5705 17.3444 16.8462C17.111 17.0239 16.7634 16.7559 16.9619 16.54C18.8194 14.5196 21.5532 13.3424 24.5014 13.574C29.5952 13.974 33.4002 18.4276 33.0002 23.5214C32.8252 25.7503 31.874 27.7324 30.4327 29.2235Z" fill="#EDBB59"/>
<path d="M30.7664 7.68542C31.009 7.89659 30.721 8.26151 30.4323 8.11984C26.8564 6.36517 22.591 6.03705 18.5714 7.55735L18.0964 7.73702C10.3841 10.6539 6.49674 19.2705 9.41363 26.9827C10.39 29.5643 12.0051 31.7174 14.0111 33.33C14.2619 33.5317 14.0529 33.9487 13.7586 33.8185C10.0831 32.1931 7.03559 29.1527 5.50154 25.0967C2.46311 17.0632 6.51247 8.08753 14.546 5.0491L15.0408 4.86195C20.5886 2.76368 26.5857 4.04554 30.7664 7.68542Z" fill="#EDBB59"/>
</g>
<defs>
<clipPath id="clip0_1_2">
<rect width="162" height="43" fill="white"/>
</clipPath>
</defs>
</svg>